<?xml version="1.0" encoding="utf-8"?>
<!-- Generator: Adobe Illustrator 19.2.1, SVG Export Plug-In . SVG Version: 6.00 Build 0)  -->
<svg version="1.1" id="Layer_1" xmlns="http://www.w3.org/2000/svg" xmlns:xlink="http://www.w3.org/1999/xlink" x="0px" y="0px"
	 width="124.2px" height="81.2px" viewBox="0 0 124.2 81.2" style="enable-background:new 0 0 124.2 81.2;" xml:space="preserve">
<style type="text/css">
	.st0{fill:#00B8E4;}
	.st1{fill:#575A5D;}
	.st2{fill:none;}
</style>
<path class="st0" d="M112.6,7.7c0,4.2-3.4,7.7-7.7,7.7c-4.2,0-7.7-3.4-7.7-7.7c0-4.2,3.4-7.7,7.7-7.7C109.1,0,112.6,3.4,112.6,7.7"
	/>
<path class="st0" d="M91.8,7.7c0,4.2-3.4,7.7-7.7,7.7c-4.2,0-7.7-3.4-7.7-7.7c0-4.2,3.4-7.7,7.7-7.7C88.3,0,91.8,3.5,91.8,7.7"/>
<path class="st1" d="M58.4,59h-0.2c-2.8,4.7-8,6.6-13.3,6.6c-7.8,0-14.5-4.2-14.5-13.1c0-15.1,17.1-15.4,27.9-15.4
	c0-4.8-3.8-7.5-8.3-7.5c-4.2,0-7.7,2-10.5,5.2l-6.9-7.4c4.7-4.7,11.6-7,18.5-7c15.1,0,19.1,7.6,19.1,22.2v21.8H58.4V59z M55.2,45.8
	c-4,0-12.8,0.4-12.8,6.3c0,3.2,3.3,4.3,6.1,4.3c5.1,0,9.8-2.4,9.8-7.8v-2.9H55.2z"/>
<rect class="st2" width="124.2" height="81.2"/>
<rect x="77.5" y="19.2" class="st1" width="13.6" height="45.4"/>
<path class="st1" d="M20.3,53.9c-5.9,0-6.5-3.5-6.5-8.2v-9.9h12V23.9l-12,0v-7.1l-13.6,0V52c0,9.6,7,13.4,16.1,13.4
	c3.2,0,6.6-0.3,9.6-1.4V52.6C24.6,53.7,21.7,53.9,20.3,53.9"/>
<path class="st1" d="M124,35.8V23.9l-12,0v-4.7H98.4V52c0,9.6,7,13.4,16.1,13.4c3.2,0,6.6-0.3,9.6-1.4V52.6
	c-1.2,1.1-4.1,1.3-5.6,1.3c-5.9,0-6.5-3.5-6.5-8.2v-9.9H124z"/>
<path class="st0" d="M84.6,79.8L84.6,79.8C84,80.7,83,81.1,82,81.1c-1.5,0-2.8-0.9-2.8-2.7c0-3,3.3-3.1,5.4-3.1c0-1-0.7-1.6-1.6-1.6
	c-0.8,0-1.5,0.4-2,1.1l-1.3-1.5c0.9-0.9,2.2-1.4,3.5-1.4c2.9,0,3.6,1.6,3.6,4.5l0,4.5l-2.3,0L84.6,79.8z M84,77
	c-0.8,0-2.4,0.1-2.4,1.3c0,0.6,0.6,1,1.2,1c1,0,1.9-0.6,1.9-1.6l0-0.6L84,77z"/>
<path class="st0" d="M4.3,72c2.2,0,3.6,1.3,3.9,3.2l-2.4,0c-0.1-0.7-0.7-1.1-1.5-1.1c-1.1,0-1.8,1-1.8,2.5c0,1.5,0.7,2.5,1.8,2.5
	c0.8,0,1.3-0.4,1.5-1.1l2.4,0c-0.3,1.9-1.7,3.2-3.9,3.2c-2.5,0-4.3-1.9-4.3-4.6C0,73.8,1.7,72,4.3,72"/>
<path class="st0" d="M13.1,81.2c-2.6,0-4.3-1.9-4.3-4.6c0-2.7,1.8-4.6,4.3-4.6c2.6,0,4.3,1.9,4.3,4.6C17.5,79.3,15.7,81.2,13.1,81.2
	 M13.1,74c-1.2,0-1.9,1.1-1.9,2.6c0,1.5,0.7,2.5,1.9,2.5c1.2,0,1.9-1.1,1.9-2.5C15,75.1,14.4,74,13.1,74"/>
<path class="st0" d="M28.5,71.9c1.8,0,2.9,1.3,2.9,3.3l0,5.8l-2.5,0l0-5.3c0-1-0.4-1.6-1.3-1.6c-0.6,0-1.2,0.4-1.4,1.1l0,5.7l-2.5,0
	l0-5.3c0-1-0.4-1.6-1.3-1.6c-0.6,0-1.2,0.4-1.4,1.2l0,5.7l-2.5,0l0-8.9l2.5,0l0,0.7c0.4-0.6,1.2-0.9,2.2-0.9c1.1,0,1.9,0.5,2.4,1.1
	C26.4,72.4,27.2,71.9,28.5,71.9"/>
<path class="st0" d="M42.8,71.9c1.8,0,2.9,1.3,2.9,3.3l0,5.8l-2.5,0l0-5.3c0-1-0.4-1.6-1.3-1.6c-0.6,0-1.2,0.4-1.4,1.2l0,5.7l-2.5,0
	l0-5.3c0-1-0.4-1.6-1.2-1.6c-0.6,0-1.2,0.4-1.4,1.2l0,5.7l-2.5,0l0-8.9l2.5,0l0,0.7c0.4-0.6,1.2-0.9,2.2-0.9c1.1,0,1.9,0.5,2.4,1.1
	C40.7,72.4,41.6,71.9,42.8,71.9"/>
<path class="st0" d="M55.3,81l-2.5,0l0-0.8c-0.5,0.6-1.3,1-2.4,1c-2,0-3.1-1.3-3.1-3.3l0-5.8l2.5,0l0,5.3c0,0.9,0.5,1.6,1.4,1.6
	c0.8,0,1.4-0.5,1.6-1.2l0-5.6l2.5,0L55.3,81z"/>
<path class="st0" d="M57.1,72.1l2.5,0l0,0.8c0.5-0.6,1.3-1,2.4-1c2,0,3.1,1.3,3.1,3.3l0,5.8l-2.5,0l0-5.3c0-0.9-0.5-1.6-1.5-1.6
	c-0.8,0-1.4,0.5-1.6,1.2l0,5.6l-2.5,0L57.1,72.1z"/>
<path class="st0" d="M107.6,72l2.5,0l0,0.8c0.5-0.6,1.4-1,2.4-1c2,0,3.1,1.3,3.1,3.3l0,5.8l-2.5,0l0-5.3c0-0.9-0.5-1.6-1.5-1.6
	c-0.8,0-1.4,0.5-1.6,1.2l0,5.6l-2.5,0L107.6,72z"/>
<path class="st0" d="M68,70.9c-0.8,0-1.5-0.6-1.5-1.4c0-0.8,0.7-1.4,1.5-1.4c0.8,0,1.4,0.6,1.4,1.4C69.4,70.4,68.8,70.9,68,70.9
	 M69.2,81l-2.5,0l0-8.9l2.5,0L69.2,81z"/>
<path class="st0" d="M74.7,71.9c2.2,0,3.6,1.3,3.9,3.2l-2.4,0c-0.1-0.7-0.7-1.1-1.5-1.1c-1.1,0-1.8,1-1.8,2.5c0,1.5,0.7,2.5,1.8,2.5
	c0.8,0,1.3-0.4,1.5-1.1l2.4,0c-0.3,1.9-1.7,3.2-3.9,3.2c-2.5,0-4.3-1.9-4.3-4.6C70.5,73.8,72.2,71.9,74.7,71.9"/>
<path class="st0" d="M88.2,69.7l2.4,0l0,2.4l1.9,0l0,2l-1.9,0l0,3.9c0,0.7,0.4,1,1,1c0.4,0,0.8-0.1,1.1-0.3l0,2.2
	c-0.3,0.2-0.9,0.3-1.6,0.3c-1.8,0-2.9-0.9-2.9-2.9L88.2,69.7z"/>
<path class="st0" d="M95.4,70.9c-0.8,0-1.5-0.6-1.5-1.4c0-0.8,0.7-1.4,1.5-1.4c0.8,0,1.5,0.6,1.5,1.4C96.9,70.3,96.2,70.9,95.4,70.9
	 M96.7,80.9l-2.5,0l0-8.9l2.5,0L96.7,80.9z"/>
<path class="st0" d="M102.2,81.1c-2.6,0-4.3-1.9-4.3-4.6c0-2.7,1.8-4.6,4.3-4.6c2.6,0,4.3,1.9,4.3,4.6
	C106.6,79.2,104.8,81.1,102.2,81.1 M102.2,73.9c-1.2,0-1.9,1.1-1.9,2.6c0,1.5,0.7,2.5,1.9,2.5c1.2,0,1.9-1.1,1.9-2.5
	C104.1,75,103.5,73.9,102.2,73.9"/>
<path class="st0" d="M119,78.3c0.2,0.6,0.8,1,1.5,1c0.8,0,1.2-0.3,1.2-0.9c0-0.4-0.3-0.6-0.9-0.8l-1.8-0.4c-1.4-0.3-2.3-1-2.3-2.5
	c0-1.7,1.5-2.9,3.5-2.9c2.2,0,3.5,1.1,3.8,2.7l-2.3,0c-0.2-0.5-0.6-0.9-1.4-0.9c-0.6,0-1.2,0.3-1.2,0.8c0,0.4,0.2,0.6,0.8,0.7
	l1.8,0.4c1.5,0.4,2.4,1.2,2.4,2.6c0,1.8-1.6,2.9-3.6,2.9c-2.2,0-3.7-1-3.9-2.8L119,78.3z"/>
</svg>
